<mxfile host="app.diagrams.net" agent="Mozilla/5.0 (Windows NT 10.0; Win64; x64) AppleWebKit/537.36 (KHTML, like Gecko) Chrome/138.0.0.0 Safari/537.36" version="27.2.0">
  <diagram name="Page-1" id="c4acf3e9-155e-7222-9cf6-157b1a14988f">
    <mxGraphModel dx="1332" dy="548" grid="1" gridSize="10" guides="1" tooltips="1" connect="1" arrows="1" fold="1" page="1" pageScale="1" pageWidth="850" pageHeight="1100" background="none" math="0" shadow="0">
      <root>
        <mxCell id="0" />
        <mxCell id="1" parent="0" />
        <mxCell id="Jukjtp7AORta1wr78Fkp-1" value="&lt;p style=&quot;margin:0px;margin-top:4px;text-align:center;&quot;&gt;&lt;span style=&quot;background-color: transparent; color: light-dark(rgb(0, 64, 133), rgb(142, 197, 255)); text-align: left;&quot;&gt;Устарело&lt;/span&gt;&lt;/p&gt;&lt;p style=&quot;margin:0px;margin-top:4px;text-align:center;&quot;&gt;&lt;span style=&quot;color: rgb(0, 64, 133); background-color: transparent; text-align: left;&quot;&gt;IHostingEnvironment&lt;/span&gt;&lt;/p&gt;&lt;hr size=&quot;1&quot; style=&quot;border-style:solid;&quot;&gt;&lt;p style=&quot;margin:0px;margin-left:4px;&quot;&gt;&lt;span style=&quot;background-color: transparent; color: light-dark(rgb(0, 0, 0), rgb(255, 255, 255));&quot;&gt;EnvironmentName:&amp;nbsp;&lt;/span&gt;&lt;span style=&quot;color: rgb(255, 0, 0); background-color: transparent;&quot;&gt;string&lt;/span&gt;&lt;/p&gt;&lt;p style=&quot;margin:0px;margin-left:4px;&quot;&gt;ApplicationName:&amp;nbsp;&lt;span style=&quot;color: rgb(255, 0, 0); background-color: transparent;&quot;&gt;&lt;/span&gt;&lt;span style=&quot;color: rgb(255, 0, 0); background-color: transparent;&quot;&gt;string&lt;/span&gt;&lt;/p&gt;&lt;p style=&quot;margin:0px;margin-left:4px;&quot;&gt;&lt;span style=&quot;color: rgb(0, 64, 133); background-color: transparent;&quot;&gt;ContentRootPath:&amp;nbsp;&lt;/span&gt;&lt;span style=&quot;color: rgb(255, 0, 0); background-color: transparent;&quot;&gt;string&lt;/span&gt;&lt;/p&gt;&lt;p style=&quot;margin:0px;margin-left:4px;&quot;&gt;ContentRootFileProvider:&amp;nbsp;&lt;span style=&quot;color: rgb(255, 0, 0); background-color: transparent;&quot;&gt;&lt;/span&gt;&lt;span style=&quot;color: rgb(0, 64, 133); background-color: transparent;&quot;&gt;IFileProvider&lt;/span&gt;&lt;/p&gt;" style="verticalAlign=top;align=left;overflow=fill;html=1;whiteSpace=wrap;" parent="1" vertex="1">
          <mxGeometry x="40" y="30" width="230" height="110" as="geometry" />
        </mxCell>
        <mxCell id="5z5D38_AP2AzqO4K6EmU-1" value="&lt;p style=&quot;margin:0px;margin-top:4px;text-align:center;&quot;&gt;&lt;span style=&quot;color: rgb(0, 64, 133); background-color: transparent; text-align: left;&quot;&gt;HostingEnvironment&lt;/span&gt;&lt;/p&gt;&lt;hr size=&quot;1&quot; style=&quot;border-style:solid;&quot;&gt;&lt;p style=&quot;margin:0px;margin-left:4px;&quot;&gt;&lt;br&gt;&lt;/p&gt;" style="verticalAlign=top;align=left;overflow=fill;html=1;whiteSpace=wrap;" vertex="1" parent="1">
          <mxGeometry x="40" y="240" width="230" height="60" as="geometry" />
        </mxCell>
        <mxCell id="5z5D38_AP2AzqO4K6EmU-2" value="" style="endArrow=block;dashed=1;endFill=0;endSize=12;html=1;rounded=0;entryX=0.5;entryY=1;entryDx=0;entryDy=0;exitX=0.5;exitY=0;exitDx=0;exitDy=0;" edge="1" parent="1" source="5z5D38_AP2AzqO4K6EmU-1" target="Jukjtp7AORta1wr78Fkp-1">
          <mxGeometry width="160" relative="1" as="geometry">
            <mxPoint x="220" y="380" as="sourcePoint" />
            <mxPoint x="380" y="380" as="targetPoint" />
          </mxGeometry>
        </mxCell>
        <mxCell id="5z5D38_AP2AzqO4K6EmU-3" value="&lt;p style=&quot;margin:0px;margin-top:4px;text-align:center;&quot;&gt;&lt;span style=&quot;color: rgb(0, 64, 133); background-color: transparent; text-align: left;&quot;&gt;IHostEnvironment&lt;/span&gt;&lt;/p&gt;&lt;hr size=&quot;1&quot; style=&quot;border-style:solid;&quot;&gt;&lt;p style=&quot;margin:0px;margin-left:4px;&quot;&gt;&lt;span style=&quot;background-color: transparent; color: light-dark(rgb(0, 0, 0), rgb(255, 255, 255));&quot;&gt;EnvironmentName:&amp;nbsp;&lt;/span&gt;&lt;span style=&quot;color: rgb(255, 0, 0); background-color: transparent;&quot;&gt;string&lt;/span&gt;&lt;/p&gt;&lt;p style=&quot;margin:0px;margin-left:4px;&quot;&gt;ApplicationName:&amp;nbsp;&lt;span style=&quot;color: rgb(255, 0, 0); background-color: transparent;&quot;&gt;&lt;/span&gt;&lt;span style=&quot;color: rgb(255, 0, 0); background-color: transparent;&quot;&gt;string&lt;/span&gt;&lt;/p&gt;&lt;p style=&quot;margin:0px;margin-left:4px;&quot;&gt;&lt;span style=&quot;color: rgb(0, 64, 133); background-color: transparent;&quot;&gt;ContentRootPath:&amp;nbsp;&lt;/span&gt;&lt;span style=&quot;color: rgb(255, 0, 0); background-color: transparent;&quot;&gt;string&lt;/span&gt;&lt;/p&gt;&lt;p style=&quot;margin:0px;margin-left:4px;&quot;&gt;ContentRootFileProvider:&amp;nbsp;&lt;span style=&quot;color: rgb(255, 0, 0); background-color: transparent;&quot;&gt;&lt;/span&gt;&lt;span style=&quot;color: rgb(0, 64, 133); background-color: transparent;&quot;&gt;IFileProvider&lt;/span&gt;&lt;/p&gt;" style="verticalAlign=top;align=left;overflow=fill;html=1;whiteSpace=wrap;" vertex="1" parent="1">
          <mxGeometry x="330" y="40" width="230" height="100" as="geometry" />
        </mxCell>
        <mxCell id="5z5D38_AP2AzqO4K6EmU-4" value="" style="endArrow=block;dashed=1;endFill=0;endSize=12;html=1;rounded=0;entryX=0.5;entryY=1;entryDx=0;entryDy=0;exitX=0.5;exitY=0;exitDx=0;exitDy=0;" edge="1" parent="1" source="5z5D38_AP2AzqO4K6EmU-1" target="5z5D38_AP2AzqO4K6EmU-3">
          <mxGeometry width="160" relative="1" as="geometry">
            <mxPoint x="360" y="330" as="sourcePoint" />
            <mxPoint x="360" y="230" as="targetPoint" />
          </mxGeometry>
        </mxCell>
        <mxCell id="5z5D38_AP2AzqO4K6EmU-5" value="&lt;p style=&quot;margin:0px;margin-top:4px;text-align:center;&quot;&gt;&lt;span style=&quot;color: rgb(0, 64, 133);&quot;&gt;HostBuilderContext&lt;/span&gt;&lt;/p&gt;&lt;hr size=&quot;1&quot; style=&quot;border-style:solid;&quot;&gt;&lt;p style=&quot;margin:0px;margin-left:4px;&quot;&gt;HostingEnvironment:&amp;nbsp;&lt;span style=&quot;color: rgb(0, 64, 133); background-color: transparent;&quot;&gt;IHostEnvironment&lt;/span&gt;&lt;/p&gt;&lt;p style=&quot;margin:0px;margin-left:4px;&quot;&gt;Configuration:&amp;nbsp;&lt;span style=&quot;color: rgb(0, 64, 133); background-color: transparent;&quot;&gt;&lt;/span&gt;&lt;span style=&quot;color: rgb(0, 64, 133); background-color: transparent;&quot;&gt;IConfiguration&lt;/span&gt;&lt;/p&gt;&lt;p style=&quot;margin:0px;margin-left:4px;&quot;&gt;Properties:&amp;nbsp;&lt;span style=&quot;color: rgb(0, 64, 133); background-color: transparent;&quot;&gt;&lt;/span&gt;&lt;span style=&quot;background-color: transparent; color: rgb(0, 64, 133);&quot;&gt;IDictionary&lt;/span&gt;&lt;span style=&quot;background-color: transparent; color: light-dark(rgb(0, 0, 0), rgb(255, 255, 255));&quot;&gt;&amp;lt;&lt;/span&gt;&lt;span style=&quot;background-color: transparent; color: rgb(255, 0, 0);&quot;&gt;object&lt;/span&gt;&lt;span style=&quot;background-color: transparent; color: light-dark(rgb(0, 0, 0), rgb(255, 255, 255));&quot;&gt;, &lt;/span&gt;&lt;span style=&quot;background-color: transparent; color: rgb(255, 0, 0);&quot;&gt;object&lt;/span&gt;&lt;span style=&quot;background-color: transparent; color: light-dark(rgb(0, 0, 0), rgb(255, 255, 255));&quot;&gt;&amp;gt;&lt;/span&gt;&lt;/p&gt;" style="verticalAlign=top;align=left;overflow=fill;html=1;whiteSpace=wrap;" vertex="1" parent="1">
          <mxGeometry x="30" y="340" width="230" height="80" as="geometry" />
        </mxCell>
        <mxCell id="5z5D38_AP2AzqO4K6EmU-6" value="&lt;p style=&quot;margin:0px;margin-top:4px;text-align:center;&quot;&gt;&lt;span style=&quot;color: rgb(0, 64, 133); background-color: transparent; text-align: left;&quot;&gt;Устарело&lt;br&gt;IApplicationLifetime&lt;/span&gt;&lt;/p&gt;&lt;hr size=&quot;1&quot; style=&quot;border-style:solid;&quot;&gt;&lt;p style=&quot;margin:0px;margin-left:4px;&quot;&gt;ApplicationStarted:&amp;nbsp;&lt;span style=&quot;color: rgb(0, 64, 133); font-weight: bold; background-color: transparent;&quot;&gt;CancellationToken&lt;/span&gt;&lt;/p&gt;&lt;p style=&quot;margin:0px;margin-left:4px;&quot;&gt;ApplicationStopping:&amp;nbsp;&lt;span style=&quot;color: rgb(0, 64, 133); font-weight: bold; background-color: transparent;&quot;&gt;&lt;/span&gt;&lt;span style=&quot;color: rgb(0, 64, 133); font-weight: bold; background-color: transparent;&quot;&gt;CancellationToken&lt;/span&gt;&lt;/p&gt;&lt;p style=&quot;margin:0px;margin-left:4px;&quot;&gt;ApplicationStopped:&amp;nbsp;&lt;span style=&quot;color: rgb(0, 64, 133); font-weight: bold; background-color: transparent;&quot;&gt;&lt;/span&gt;&lt;span style=&quot;color: rgb(0, 64, 133); font-weight: bold; background-color: transparent;&quot;&gt;CancellationToken&lt;/span&gt;&lt;/p&gt;&lt;p style=&quot;margin:0px;margin-left:4px;&quot;&gt;&lt;span style=&quot;color: rgb(25, 25, 112); font-weight: bold;&quot;&gt;StopApplication&lt;/span&gt;():&amp;nbsp;&lt;span style=&quot;color: rgb(0, 64, 133); font-weight: bold; background-color: transparent;&quot;&gt;&lt;/span&gt;&lt;span style=&quot;color: rgb(255, 0, 0); background-color: transparent;&quot;&gt;void&lt;/span&gt;&lt;/p&gt;" style="verticalAlign=top;align=left;overflow=fill;html=1;whiteSpace=wrap;" vertex="1" parent="1">
          <mxGeometry x="680" y="20" width="230" height="120" as="geometry" />
        </mxCell>
        <mxCell id="5z5D38_AP2AzqO4K6EmU-7" value="&lt;p style=&quot;margin:0px;margin-top:4px;text-align:center;&quot;&gt;&lt;span style=&quot;color: rgb(0, 64, 133); background-color: transparent; text-align: left;&quot;&gt;IHostApplicationLifetime&lt;/span&gt;&lt;/p&gt;&lt;hr size=&quot;1&quot; style=&quot;border-style:solid;&quot;&gt;&lt;p style=&quot;margin:0px;margin-left:4px;&quot;&gt;ApplicationStarted:&amp;nbsp;&lt;span style=&quot;color: rgb(0, 64, 133); font-weight: bold; background-color: transparent;&quot;&gt;CancellationToken&lt;/span&gt;&lt;/p&gt;&lt;p style=&quot;margin:0px;margin-left:4px;&quot;&gt;ApplicationStopping:&amp;nbsp;&lt;span style=&quot;color: rgb(0, 64, 133); font-weight: bold; background-color: transparent;&quot;&gt;&lt;/span&gt;&lt;span style=&quot;color: rgb(0, 64, 133); font-weight: bold; background-color: transparent;&quot;&gt;CancellationToken&lt;/span&gt;&lt;/p&gt;&lt;p style=&quot;margin:0px;margin-left:4px;&quot;&gt;ApplicationStopped:&amp;nbsp;&lt;span style=&quot;color: rgb(0, 64, 133); font-weight: bold; background-color: transparent;&quot;&gt;&lt;/span&gt;&lt;span style=&quot;color: rgb(0, 64, 133); font-weight: bold; background-color: transparent;&quot;&gt;CancellationToken&lt;/span&gt;&lt;/p&gt;&lt;p style=&quot;margin:0px;margin-left:4px;&quot;&gt;&lt;span style=&quot;color: rgb(25, 25, 112); font-weight: bold;&quot;&gt;StopApplication&lt;/span&gt;():&amp;nbsp;&lt;span style=&quot;color: rgb(0, 64, 133); font-weight: bold; background-color: transparent;&quot;&gt;&lt;/span&gt;&lt;span style=&quot;color: rgb(255, 0, 0); background-color: transparent;&quot;&gt;void&lt;/span&gt;&lt;/p&gt;" style="verticalAlign=top;align=left;overflow=fill;html=1;whiteSpace=wrap;" vertex="1" parent="1">
          <mxGeometry x="930" y="40" width="230" height="100" as="geometry" />
        </mxCell>
        <mxCell id="5z5D38_AP2AzqO4K6EmU-8" value="&lt;p style=&quot;margin:0px;margin-top:4px;text-align:center;&quot;&gt;&lt;span style=&quot;color: rgb(0, 64, 133); background-color: transparent; text-align: left;&quot;&gt;ApplicationLifetime&lt;/span&gt;&lt;/p&gt;&lt;hr size=&quot;1&quot; style=&quot;border-style:solid;&quot;&gt;&lt;p style=&quot;margin:0px;margin-left:4px;&quot;&gt;&lt;br&gt;&lt;/p&gt;" style="verticalAlign=top;align=left;overflow=fill;html=1;whiteSpace=wrap;" vertex="1" parent="1">
          <mxGeometry x="680" y="230" width="230" height="60" as="geometry" />
        </mxCell>
        <mxCell id="5z5D38_AP2AzqO4K6EmU-9" value="" style="endArrow=block;dashed=1;endFill=0;endSize=12;html=1;rounded=0;entryX=0.5;entryY=1;entryDx=0;entryDy=0;exitX=0.5;exitY=0;exitDx=0;exitDy=0;" edge="1" parent="1" source="5z5D38_AP2AzqO4K6EmU-8" target="5z5D38_AP2AzqO4K6EmU-7">
          <mxGeometry width="160" relative="1" as="geometry">
            <mxPoint x="670" y="290" as="sourcePoint" />
            <mxPoint x="920" y="190" as="targetPoint" />
          </mxGeometry>
        </mxCell>
        <mxCell id="5z5D38_AP2AzqO4K6EmU-10" value="" style="endArrow=block;dashed=1;endFill=0;endSize=12;html=1;rounded=0;entryX=0.5;entryY=1;entryDx=0;entryDy=0;" edge="1" parent="1" source="5z5D38_AP2AzqO4K6EmU-8" target="5z5D38_AP2AzqO4K6EmU-6">
          <mxGeometry width="160" relative="1" as="geometry">
            <mxPoint x="560" y="310" as="sourcePoint" />
            <mxPoint x="560" y="210" as="targetPoint" />
          </mxGeometry>
        </mxCell>
        <mxCell id="5z5D38_AP2AzqO4K6EmU-11" value="&lt;p style=&quot;margin:0px;margin-top:4px;text-align:center;&quot;&gt;&lt;span style=&quot;color: rgb(0, 64, 133);&quot;&gt;IHostLifetime&lt;/span&gt;&lt;/p&gt;&lt;hr size=&quot;1&quot; style=&quot;border-style:solid;&quot;&gt;&lt;p style=&quot;margin:0px;margin-left:4px;&quot;&gt;&lt;span style=&quot;color: rgb(25, 25, 112); font-weight: bold;&quot;&gt;WaitForStartAsync&lt;/span&gt;(&lt;span style=&quot;color: rgb(0, 64, 133); font-weight: bold;&quot;&gt;CancellationToken&lt;/span&gt; cancellationToken):&amp;nbsp;&lt;span style=&quot;color: rgb(0, 64, 133); background-color: transparent;&quot;&gt;Task&lt;/span&gt;&lt;/p&gt;&lt;p style=&quot;margin:0px;margin-left:4px;&quot;&gt;&lt;span style=&quot;color: rgb(25, 25, 112); font-weight: bold;&quot;&gt;StopAsync&lt;/span&gt;(&lt;span style=&quot;color: rgb(0, 64, 133); font-weight: bold;&quot;&gt;CancellationToken&lt;/span&gt; cancellationToken):&amp;nbsp;&lt;span style=&quot;color: rgb(0, 64, 133); background-color: transparent;&quot;&gt;&lt;/span&gt;&lt;span style=&quot;color: rgb(0, 64, 133); background-color: transparent;&quot;&gt;Task&lt;/span&gt;&lt;/p&gt;" style="verticalAlign=top;align=left;overflow=fill;html=1;whiteSpace=wrap;" vertex="1" parent="1">
          <mxGeometry x="390" y="720" width="370" height="70" as="geometry" />
        </mxCell>
        <mxCell id="5z5D38_AP2AzqO4K6EmU-12" value="&lt;p style=&quot;margin:0px;margin-top:4px;text-align:center;&quot;&gt;&lt;span style=&quot;color: rgb(0, 64, 133);&quot;&gt;ConsoleLifetime&lt;/span&gt;&lt;/p&gt;&lt;hr size=&quot;1&quot; style=&quot;border-style:solid;&quot;&gt;&lt;p style=&quot;margin:0px;margin-left:4px;&quot;&gt;&lt;br&gt;&lt;/p&gt;" style="verticalAlign=top;align=left;overflow=fill;html=1;whiteSpace=wrap;" vertex="1" parent="1">
          <mxGeometry x="390" y="830" width="230" height="60" as="geometry" />
        </mxCell>
        <mxCell id="5z5D38_AP2AzqO4K6EmU-13" value="" style="endArrow=block;dashed=1;endFill=0;endSize=12;html=1;rounded=0;entryX=0.5;entryY=1;entryDx=0;entryDy=0;exitX=0.5;exitY=0;exitDx=0;exitDy=0;" edge="1" parent="1" source="5z5D38_AP2AzqO4K6EmU-12" target="5z5D38_AP2AzqO4K6EmU-11">
          <mxGeometry width="160" relative="1" as="geometry">
            <mxPoint x="320" y="990" as="sourcePoint" />
            <mxPoint x="320" y="900" as="targetPoint" />
          </mxGeometry>
        </mxCell>
        <mxCell id="5z5D38_AP2AzqO4K6EmU-14" value="&lt;p style=&quot;margin:0px;margin-top:4px;text-align:center;&quot;&gt;&lt;span style=&quot;color: rgb(0, 64, 133);&quot;&gt;IHost&lt;/span&gt;&lt;/p&gt;&lt;hr size=&quot;1&quot; style=&quot;border-style:solid;&quot;&gt;&lt;p style=&quot;margin:0px;margin-left:4px;&quot;&gt;Services:&amp;nbsp;&lt;span style=&quot;color: rgb(0, 64, 133); background-color: transparent;&quot;&gt;IServiceProvider&lt;/span&gt;&lt;/p&gt;&lt;p style=&quot;margin:0px;margin-left:4px;&quot;&gt;&lt;span style=&quot;color: rgb(25, 25, 112); font-weight: bold;&quot;&gt;StartAsync&lt;/span&gt;(&lt;span style=&quot;color: rgb(0, 64, 133); font-weight: bold;&quot;&gt;CancellationToken&lt;/span&gt; cancellationToken):&amp;nbsp;&lt;span style=&quot;color: rgb(0, 64, 133); background-color: transparent;&quot;&gt;&lt;/span&gt;&lt;span style=&quot;color: rgb(0, 64, 133); background-color: transparent;&quot;&gt;Task&lt;/span&gt;&lt;/p&gt;&lt;p style=&quot;margin:0px;margin-left:4px;&quot;&gt;&lt;span style=&quot;color: rgb(25, 25, 112); font-weight: bold;&quot;&gt;StopAsync&lt;/span&gt;(&lt;span style=&quot;color: rgb(0, 64, 133); font-weight: bold;&quot;&gt;CancellationToken&lt;/span&gt; cancellationToken):&amp;nbsp;&lt;span style=&quot;color: rgb(0, 64, 133); background-color: transparent;&quot;&gt;&lt;/span&gt;&lt;span style=&quot;color: rgb(0, 64, 133); background-color: transparent;&quot;&gt;Task&lt;/span&gt;&lt;/p&gt;" style="verticalAlign=top;align=left;overflow=fill;html=1;whiteSpace=wrap;" vertex="1" parent="1">
          <mxGeometry x="850" y="720" width="320" height="80" as="geometry" />
        </mxCell>
        <mxCell id="5z5D38_AP2AzqO4K6EmU-15" value="&lt;p style=&quot;margin:0px;margin-top:4px;text-align:center;&quot;&gt;&lt;span style=&quot;color: rgb(0, 64, 133); background-color: transparent; text-align: left;&quot;&gt;IWebHostEnvironment&lt;/span&gt;&lt;/p&gt;&lt;hr size=&quot;1&quot; style=&quot;border-style:solid;&quot;&gt;&lt;p style=&quot;margin:0px;margin-left:4px;&quot;&gt;&lt;span style=&quot;background-color: transparent; color: light-dark(rgb(0, 0, 0), rgb(255, 255, 255));&quot;&gt;WebRootPath&lt;/span&gt;&lt;span style=&quot;background-color: transparent; color: light-dark(rgb(0, 0, 0), rgb(255, 255, 255));&quot;&gt;:&amp;nbsp;&lt;/span&gt;&lt;span style=&quot;color: rgb(255, 0, 0); background-color: transparent;&quot;&gt;string&lt;/span&gt;&lt;/p&gt;&lt;p style=&quot;margin:0px;margin-left:4px;&quot;&gt;&lt;span style=&quot;background-color: transparent; color: light-dark(rgb(0, 0, 0), rgb(255, 255, 255));&quot;&gt;WebRootFileProvider&lt;/span&gt;:&amp;nbsp;&lt;span style=&quot;color: rgb(0, 64, 133); background-color: transparent;&quot;&gt;IFileProvider&lt;/span&gt;&lt;/p&gt;" style="verticalAlign=top;align=left;overflow=fill;html=1;whiteSpace=wrap;" vertex="1" parent="1">
          <mxGeometry x="330" y="200" width="230" height="70" as="geometry" />
        </mxCell>
        <mxCell id="5z5D38_AP2AzqO4K6EmU-16" value="" style="endArrow=block;dashed=1;endFill=0;endSize=12;html=1;rounded=0;entryX=0.5;entryY=1;entryDx=0;entryDy=0;exitX=0.5;exitY=0;exitDx=0;exitDy=0;" edge="1" parent="1" source="5z5D38_AP2AzqO4K6EmU-15" target="5z5D38_AP2AzqO4K6EmU-3">
          <mxGeometry width="160" relative="1" as="geometry">
            <mxPoint x="440" y="450" as="sourcePoint" />
            <mxPoint x="440" y="350" as="targetPoint" />
          </mxGeometry>
        </mxCell>
        <mxCell id="5z5D38_AP2AzqO4K6EmU-17" value="&lt;p style=&quot;margin:0px;margin-top:4px;text-align:center;&quot;&gt;&lt;span style=&quot;color: rgb(0, 64, 133); background-color: transparent; text-align: left;&quot;&gt;HostingEnvironment&lt;/span&gt;&lt;/p&gt;&lt;hr size=&quot;1&quot; style=&quot;border-style:solid;&quot;&gt;&lt;p style=&quot;margin:0px;margin-left:4px;&quot;&gt;&lt;br&gt;&lt;/p&gt;" style="verticalAlign=top;align=left;overflow=fill;html=1;whiteSpace=wrap;" vertex="1" parent="1">
          <mxGeometry x="330" y="340" width="230" height="60" as="geometry" />
        </mxCell>
        <mxCell id="5z5D38_AP2AzqO4K6EmU-18" value="" style="endArrow=block;dashed=1;endFill=0;endSize=12;html=1;rounded=0;entryX=0.5;entryY=1;entryDx=0;entryDy=0;" edge="1" parent="1" source="5z5D38_AP2AzqO4K6EmU-17" target="5z5D38_AP2AzqO4K6EmU-15">
          <mxGeometry width="160" relative="1" as="geometry">
            <mxPoint x="440" y="370" as="sourcePoint" />
            <mxPoint x="440" y="310" as="targetPoint" />
          </mxGeometry>
        </mxCell>
        <mxCell id="5z5D38_AP2AzqO4K6EmU-19" value="&lt;p style=&quot;margin:0px;margin-top:4px;text-align:center;&quot;&gt;&lt;span style=&quot;color: rgb(0, 64, 133);&quot;&gt;IApplicationBuilderFactory&lt;/span&gt;&lt;/p&gt;&lt;hr size=&quot;1&quot; style=&quot;border-style:solid;&quot;&gt;&lt;p style=&quot;margin:0px;margin-left:4px;&quot;&gt;&lt;span style=&quot;color: rgb(25, 25, 112); font-weight: bold;&quot;&gt;CreateBuilder&lt;/span&gt;(&lt;/p&gt;&lt;p style=&quot;margin:0px;margin-left:4px;&quot;&gt;&lt;span style=&quot;color: rgb(0, 64, 133);&quot;&gt;&lt;span style=&quot;white-space: pre;&quot;&gt;&#x9;&lt;/span&gt;IFeatureCollection&lt;/span&gt; serverFeatures&lt;/p&gt;&lt;p style=&quot;margin:0px;margin-left:4px;&quot;&gt;):&amp;nbsp;&lt;span style=&quot;color: rgb(0, 64, 133); background-color: transparent;&quot;&gt;IApplicationBuilder&lt;/span&gt;&lt;/p&gt;" style="verticalAlign=top;align=left;overflow=fill;html=1;whiteSpace=wrap;" vertex="1" parent="1">
          <mxGeometry x="40" y="540" width="230" height="100" as="geometry" />
        </mxCell>
        <mxCell id="5z5D38_AP2AzqO4K6EmU-20" value="&lt;p style=&quot;margin:0px;margin-top:4px;text-align:center;&quot;&gt;&lt;span style=&quot;color: rgb(0, 64, 133);&quot;&gt;ApplicationBuilderFactory&lt;/span&gt;&lt;/p&gt;&lt;hr size=&quot;1&quot; style=&quot;border-style:solid;&quot;&gt;&lt;p style=&quot;margin:0px;margin-left:4px;&quot;&gt;&lt;br&gt;&lt;/p&gt;" style="verticalAlign=top;align=left;overflow=fill;html=1;whiteSpace=wrap;" vertex="1" parent="1">
          <mxGeometry x="40" y="680" width="230" height="60" as="geometry" />
        </mxCell>
        <mxCell id="5z5D38_AP2AzqO4K6EmU-21" value="" style="endArrow=block;dashed=1;endFill=0;endSize=12;html=1;rounded=0;entryX=0.5;entryY=1;entryDx=0;entryDy=0;exitX=0.5;exitY=0;exitDx=0;exitDy=0;" edge="1" parent="1" source="5z5D38_AP2AzqO4K6EmU-20" target="5z5D38_AP2AzqO4K6EmU-19">
          <mxGeometry width="160" relative="1" as="geometry">
            <mxPoint x="370" y="660" as="sourcePoint" />
            <mxPoint x="440" y="620" as="targetPoint" />
          </mxGeometry>
        </mxCell>
      </root>
    </mxGraphModel>
  </diagram>
</mxfile>
